<svg width="1269" height="325" viewBox="0 0 1269 325" fill="none" xmlns="http://www.w3.org/2000/svg">
<g clip-path="url(#clip0_36_5733)">
<path d="M191.343 16.036C198.811 23.6497 198.811 23.6497 200.986 28.4227C198.528 37.617 194.549 45.6404 190.082 54.0128C189.426 55.2428 188.771 56.4728 188.095 57.74C186.716 60.3203 185.332 62.8979 183.944 65.4731C181.826 69.4071 179.73 73.3524 177.636 77.2992C176.288 79.815 174.938 82.3302 173.588 84.8446C171.761 88.2525 171.761 88.2525 169.897 91.7293C166.474 97.4454 166.474 97.4453 160.384 103.536C157.035 98.8461 153.685 94.1566 150.234 89.325C149.027 91.5154 147.821 93.7057 146.578 95.9624C131.453 123.35 115.805 150.412 100.013 177.419C98.7249 179.624 97.4368 181.828 96.1096 184.099C93.5786 188.429 91.0451 192.757 88.5087 197.083C86.7766 200.044 86.7766 200.044 85.0096 203.065C83.9823 204.818 82.955 206.571 81.8965 208.378C76.4074 218.044 73.7118 224.017 75.1209 235.491C79.0118 241.75 79.0118 241.75 85.2712 245.641C93.1632 246.909 97.4494 246.886 104.311 242.683C111.608 235.604 115.838 227.624 120.671 218.743C122.828 214.871 124.987 211.001 127.15 207.133C128.27 205.118 129.39 203.103 130.545 201.027C136.207 190.948 142.089 181 147.95 171.036C159.008 152.16 169.783 133.139 180.435 114.03C190.986 95.1072 201.713 76.2887 212.494 57.496C216.618 50.305 220.728 43.1068 224.839 35.9086C227.038 32.0599 229.238 28.2112 231.437 24.3625C239.654 27.1015 242.475 32.5996 247.17 39.4612C248.506 41.3758 248.506 41.3758 249.87 43.3291C251.676 45.9194 253.476 48.5142 255.27 51.1134C258.832 56.2657 262.458 61.3723 266.075 66.4866C274.068 77.8461 275.57 85.5277 274.069 99.4754C272.037 105.487 269.03 110.591 265.695 115.97C264.795 117.503 263.896 119.036 262.969 120.615C260.995 123.973 259.001 127.319 256.99 130.655C252.421 138.258 247.974 145.93 243.515 153.598C241.111 157.727 238.701 161.854 236.286 165.976C228.058 180.02 219.996 194.148 212.024 208.338C156.232 307.318 156.232 307.318 119.021 318.09C90.5869 324.487 63.5236 319.68 38.5794 304.513C18.4799 291.29 7.83629 268.271 0.864371 245.942C-0.347925 239.769 -0.581759 233.787 -0.753348 227.497C-0.85279 225.05 -0.952232 222.604 -1.05469 220.083C0.24876 198.258 13.4423 177.887 24.3689 159.617C26.4045 156.153 28.4402 152.69 30.4723 149.225C32.5274 145.723 34.5889 142.225 36.6505 138.727C42.5788 128.589 48.3185 118.348 54.0588 108.103C65.9547 86.9659 78.1591 66.0248 90.6428 45.2293C92.9801 41.2957 95.2526 37.3372 97.4914 33.3472C106.507 17.8705 118.463 6.48241 135.896 1.0166C156.419 -2.6585 175.497 2.66647 191.343 16.036Z" fill="white"/>
<path d="M269.998 152.256C275.467 157.162 278.66 162.41 282.186 168.83C283.344 170.921 284.501 173.013 285.694 175.168C287.533 178.523 287.533 178.523 289.41 181.946C291.995 186.613 294.583 191.278 297.174 195.942C298.436 198.215 299.698 200.488 300.999 202.83C305.357 210.613 309.843 218.31 314.406 225.973C323.797 241.777 332.942 257.72 342.065 273.68C343.155 275.582 343.155 275.582 344.266 277.523C346.347 281.16 348.426 284.799 350.503 288.438C351.713 290.557 352.923 292.676 354.17 294.86C356.694 299.382 359.091 303.914 361.351 308.572C350.588 308.824 339.827 309.007 329.061 309.13C325.402 309.18 321.744 309.25 318.086 309.338C312.814 309.461 307.545 309.519 302.273 309.563C300.648 309.616 299.024 309.668 297.35 309.722C288.696 309.726 284.925 309.039 277.453 304.169C272.149 298.551 268.386 293.388 264.605 286.669C263.325 284.421 262.046 282.173 260.727 279.857C259.432 277.526 258.137 275.194 256.802 272.792C255.507 270.507 254.211 268.223 252.877 265.869C250.314 261.336 247.771 256.791 245.248 252.235C242.824 247.881 240.356 243.552 237.841 239.25C236.142 236.297 236.142 236.297 234.408 233.285C233.391 231.551 232.374 229.818 231.327 228.032C229.045 222.451 229.154 220.692 231.426 215.188C233.173 211.827 235.034 208.524 236.969 205.268C238.098 203.361 239.227 201.455 240.391 199.491C241.578 197.511 242.764 195.532 243.987 193.492C245.135 191.551 246.282 189.611 247.464 187.612C254.626 175.578 262.1 163.819 269.998 152.256Z" fill="white"/>
<path d="M186.759 12.1826C192 17.2539 196.599 22.5911 200.97 28.4233C199.63 31.103 198.29 33.7827 196.91 36.5436C196.324 34.9106 195.737 33.2777 195.134 31.5953C193.392 26.1239 193.392 26.1239 188.79 24.3631C188.79 22.3533 188.79 20.3436 188.79 18.2729C187.492 18.0217 186.194 17.7704 184.856 17.5116C183.475 17.0929 182.093 16.6742 180.669 16.2428C179.664 14.233 179.664 14.233 178.639 12.1826C165.565 4.79269 152.133 3.86814 137.482 7.11537C119.396 13.1788 108.907 26.6381 99.466 42.6338C98.7836 45.3391 98.1059 48.0457 97.436 50.7541C94.0525 54.1376 90.669 57.5211 87.2856 60.9045C86.5884 63.6061 85.9128 66.3133 85.2555 69.0248C83.5807 70.9928 81.9059 72.9607 80.1803 74.9882C75.285 80.985 73.739 83.8302 73.075 91.3557C71.7352 91.3557 70.3953 91.3557 69.0149 91.3557C68.4705 93.5748 67.9262 95.794 67.3654 98.0804C64.9568 105.56 63.9973 106.549 58.8645 111.657C57.0631 114.897 55.3777 118.203 53.7893 121.553C47.4235 134.897 39.4783 147.085 31.506 159.514C28.4443 164.212 28.4443 164.212 26.3832 168.499C24.3734 167.829 22.3636 167.159 20.293 166.469C21.5517 164.297 22.8104 162.125 24.1073 159.887C25.9233 156.752 27.7392 153.617 29.5552 150.482C30.5477 148.769 31.5401 147.057 32.5627 145.293C38.3337 135.329 44.087 125.355 49.8163 115.368C62.9423 92.5028 76.1812 69.7115 89.6963 47.0746C90.9622 44.9441 92.2281 42.8137 93.5324 40.6186C94.7238 38.6327 95.9151 36.6468 97.1426 34.6007C98.7017 31.995 98.7017 31.995 100.292 29.3367C109.322 15.4489 119.616 6.16952 135.627 1.27097C153.938 -2.42001 171.522 1.54195 186.759 12.1826Z" fill="white"/>
<path d="M34.5105 294.365C36.5203 294.365 38.5301 294.365 40.6008 294.365C41.2707 297.045 41.9406 299.725 42.6309 302.486C43.6776 302.695 44.7244 302.904 45.8029 303.12C50.7512 304.516 50.7512 304.516 57.6027 307.688C64.9353 310.595 69.4114 310.782 77.1422 310.606C79.152 311.946 81.1618 313.286 83.2324 314.666C88.5251 315.311 88.5251 315.311 94.271 315.174C96.1944 315.184 98.1178 315.194 100.1 315.205C105.727 314.65 108.749 313.197 113.684 310.606C118.473 309.765 118.473 309.765 123.326 309.337C124.949 309.185 126.571 309.034 128.243 308.877C129.468 308.778 130.693 308.678 131.954 308.576C131.954 307.236 131.954 305.896 131.954 304.516C134.634 303.846 137.314 303.176 140.075 302.486C139.07 298.466 139.07 298.466 138.045 294.365C140.724 294.365 143.404 294.365 146.165 294.365C147.17 298.385 147.17 298.385 148.195 302.486C129.032 317.571 107.482 322.635 83.2324 320.756C66.8736 318.015 45.9619 313.499 34.9626 300.13C34.1435 298.898 33.3244 297.665 32.4805 296.395C33.1504 295.725 33.8203 295.055 34.5105 294.365Z" fill="white"/>
<path d="M270.001 152.256C276.31 158.228 280.424 165.071 284.719 172.557C285.483 173.834 286.247 175.111 287.034 176.426C288.968 179.782 290.667 183.27 292.332 186.767C291.662 188.777 290.992 190.787 290.302 192.857C285.129 190.271 285.048 188.568 283.196 183.215C282.681 181.76 282.165 180.305 281.634 178.805C281.145 177.413 280.655 176.021 280.151 174.587C278.81 171.198 277.463 167.812 276.091 164.436C272.071 165.106 268.052 165.776 263.911 166.466C263.911 168.476 263.911 170.486 263.911 172.557C262.571 172.557 261.231 172.557 259.85 172.557C257.424 178.055 255.812 182.378 255.41 188.417C253.56 195.674 251.404 197.748 246.274 203.008C242.358 206.951 242.358 206.951 239.55 211.128C240.248 218.157 240.248 218.157 243.61 223.309C241.663 223.623 241.663 223.623 239.676 223.943C237.604 224.634 237.604 224.634 235.489 225.339C234.819 227.348 234.15 229.358 233.459 231.429C229.229 224.461 229.229 224.461 229.949 219.583C231.713 214.347 234.149 210.02 236.972 205.268C238.102 203.361 239.231 201.455 240.394 199.491C241.581 197.511 242.768 195.532 243.99 193.492C245.138 191.551 246.285 189.611 247.468 187.612C254.629 175.578 262.103 163.819 270.001 152.256Z" fill="white"/>
<path d="M83.2254 62.9297C84.5653 62.9297 85.9051 62.9297 87.2856 62.9297C85.2733 68.9666 83.6542 72.6643 79.0384 77.1402C74.458 81.8683 73.7904 84.9126 73.075 91.3508C71.7352 91.3508 70.3953 91.3508 69.0149 91.3508C68.4705 93.5699 67.9262 95.7891 67.3654 98.0754C64.9568 105.555 63.9973 106.544 58.8645 111.652C57.0631 114.892 55.3777 118.198 53.7893 121.548C47.4235 134.892 39.4783 147.08 31.506 159.509C28.4443 164.207 28.4443 164.207 26.3832 168.494C24.3734 167.824 22.3636 167.154 20.293 166.464C22.1811 163.206 22.1811 163.206 24.1073 159.882C24.9589 158.411 25.8106 156.941 26.688 155.426C28.6283 152.077 30.5702 148.729 32.5136 145.381C37.8995 136.094 43.2584 126.794 48.5596 117.458C51.2741 112.68 53.9985 107.907 56.7233 103.135C58.7125 99.6421 60.688 96.1413 62.6634 92.6404C63.8984 90.4798 65.1335 88.3193 66.4059 86.0932C67.497 84.1699 68.5881 82.2467 69.7122 80.2652C73.0784 75.1049 76.7714 71.2463 81.1953 66.9898C81.8653 65.65 82.5352 64.3101 83.2254 62.9297Z" fill="white"/>
<path d="M205.046 205.039C207.056 205.039 209.066 205.039 211.137 205.039C208.581 213.38 205.49 220.605 201.105 228.139C199.929 230.165 198.752 232.192 197.539 234.279C196.29 236.396 195.041 238.512 193.754 240.692C192.48 242.862 191.206 245.032 189.894 247.268C166.142 287.382 166.142 287.382 154.295 298.423C152.955 297.753 151.615 297.083 150.234 296.393C151.574 291.703 152.914 287.014 154.295 282.182C156.974 282.182 159.654 282.182 162.415 282.182C162.959 280.214 163.503 278.246 164.064 276.219C165.258 273.141 165.258 273.141 166.475 270.002C168.485 269.332 170.495 268.662 172.565 267.972C175.102 262.787 175.102 262.787 177.006 256.679C178.054 253.598 178.054 253.598 179.123 250.454C179.639 248.866 180.154 247.277 180.686 245.641C182.695 245.641 184.705 245.641 186.776 245.641C187.006 244.466 187.236 243.291 187.474 242.08C188.923 237.119 190.98 233.786 193.881 229.527C197.85 223.408 200.293 218.53 200.986 211.129C202.326 211.129 203.666 211.129 205.046 211.129C205.046 209.12 205.046 207.11 205.046 205.039Z" fill="white"/>
<path d="M345.121 284.209C353.905 291.738 355.588 297.022 361.362 308.57C336.574 308.57 311.787 308.57 286.249 308.57C285.579 306.56 284.909 304.55 284.219 302.48C306.326 302.48 328.434 302.48 351.211 302.48C349.872 299.13 348.532 295.78 347.151 292.329C346.423 289.636 345.726 286.933 345.121 284.209Z" fill="white"/>
<path d="M270.009 152.256C276.263 158.509 280.374 164.97 284.727 172.557C285.491 173.834 286.255 175.111 287.043 176.426C288.976 179.782 290.675 183.27 292.34 186.767C291.67 188.777 291 190.787 290.31 192.857C285.137 190.271 285.056 188.568 283.205 183.215C282.689 181.76 282.173 180.305 281.642 178.805C281.153 177.413 280.664 176.021 280.159 174.587C278.818 171.198 277.471 167.812 276.099 164.436C272.08 165.106 268.06 165.776 263.919 166.466C263.919 168.476 263.919 170.486 263.919 172.557C262.579 172.557 261.239 172.557 259.859 172.557C258.519 175.906 257.179 179.256 255.798 182.707C254.459 182.037 253.119 181.367 251.738 180.677C257.768 171.298 263.797 161.919 270.009 152.256Z" fill="white"/>
<path d="M18.2707 170.527C19.9384 176.114 20.3948 178.311 18.7782 184.103C16.2406 188.798 16.2406 188.798 10.1504 190.828C10.2341 192.712 10.3179 194.596 10.4042 196.538C10.1504 203.009 10.1504 203.009 6.09024 209.099C5.29063 213.817 4.59841 218.555 4.06016 223.309C2.72031 221.97 1.38045 220.63 0 219.249C0.435169 206.335 4.23532 197.023 10.2773 185.753C11.4254 183.539 11.4254 183.539 12.5968 181.28C14.4658 177.684 16.3651 174.104 18.2707 170.527Z" fill="white"/>
<path d="M73.0735 235.488C75.6485 238.001 75.6485 238.001 78.2755 240.563C83.4466 244.822 85.4304 245.67 92.3592 246.907C101.63 245.252 104.979 241.991 111.645 235.488C112.985 236.158 114.325 236.828 115.705 237.518C115.705 238.858 115.705 240.198 115.705 241.579C114.491 242.123 113.277 242.667 112.026 243.228C107.527 245.339 107.527 245.339 104.817 248.787C99.5003 253.495 94.5684 252.564 87.7519 252.308C81.4679 251.504 77.7106 249.977 73.0735 245.639C72.4391 240.183 72.4391 240.183 73.0735 235.488Z" fill="white"/>
<path d="M205.029 205.039C207.038 205.039 209.048 205.039 211.119 205.039C208.138 215.554 203.374 224.008 197.669 233.206C196.816 234.604 195.963 236.001 195.084 237.441C192.996 240.858 190.894 244.265 188.788 247.671C187.623 243.888 187.623 243.888 186.758 239.55C189.153 235.118 189.153 235.118 192.594 230.542C197.472 224.019 199.853 219.24 200.968 211.129C202.308 211.129 203.648 211.129 205.029 211.129C205.029 209.12 205.029 207.11 205.029 205.039Z" fill="white"/>
<path d="M115.712 136.016C117.052 136.686 118.392 137.355 119.772 138.046C116.979 147.72 112.732 155.758 107.338 164.183C106.582 165.387 105.825 166.591 105.046 167.831C103.199 170.767 101.337 173.693 99.4715 176.617C98.8016 173.938 98.1316 171.258 97.4414 168.497C98.7813 168.497 100.121 168.497 101.502 168.497C101.502 166.487 101.502 164.477 101.502 162.407C102.841 162.407 104.181 162.407 105.562 162.407C106.232 157.717 106.902 153.028 107.592 148.196C109.602 148.196 111.611 148.196 113.682 148.196C114.352 144.177 115.022 140.157 115.712 136.016Z" fill="white"/>
<path d="M239.557 213.154C240.897 216.504 242.236 219.854 243.617 223.305C242.319 223.514 241.021 223.723 239.684 223.939C238.302 224.4 236.92 224.86 235.497 225.335C234.827 227.345 234.157 229.354 233.466 231.425C230.663 226.807 229.291 224.316 229.914 218.864C232.044 213.716 234.109 213.154 239.557 213.154Z" fill="white"/>
<path d="M138.043 294.365C140.723 294.365 143.403 294.365 146.164 294.365C146.834 297.045 147.504 299.725 148.194 302.486C141.979 307.812 140.618 308.576 131.953 308.576C131.953 307.236 131.953 305.896 131.953 304.516C134.633 303.846 137.313 303.176 140.073 302.486C139.404 299.806 138.734 297.126 138.043 294.365Z" fill="white"/>
<path d="M8.125 261.885C9.46485 261.885 10.8047 261.885 12.1852 261.885C12.8551 263.895 13.525 265.904 14.2152 267.975C18.0307 271.934 18.0307 271.934 21.5743 274.7C25.3356 279.316 24.835 282.486 24.3656 288.276C16.9072 281.422 12.0754 275.301 8.125 265.945C8.125 264.605 8.125 263.265 8.125 261.885Z" fill="white"/>
<path d="M154.295 282.178C156.974 282.848 159.654 283.518 162.415 284.208C161.27 290.845 159.37 294.004 154.295 298.418C152.955 297.748 151.615 297.079 150.234 296.388C151.574 291.699 152.914 287.009 154.295 282.178Z" fill="white"/>
<path d="M182.715 12.1777C191.392 15.3915 195.434 21.3246 200.986 28.4184C199.646 31.0981 198.306 33.7778 196.925 36.5387C196.339 34.9057 195.753 33.2728 195.149 31.5904C193.408 26.119 193.408 26.119 188.805 24.3582C188.805 22.3484 188.805 20.3387 188.805 18.268C187.465 18.268 186.125 18.268 184.745 18.268C184.075 16.2582 183.405 14.2484 182.715 12.1777Z" fill="white"/>
<path d="M138.039 107.598C135.329 114.894 132.029 121.311 127.888 127.898C126.548 126.559 125.209 125.219 123.828 123.838C124.22 117.958 125.914 115.653 129.791 111.15C133.979 107.598 133.979 107.598 138.039 107.598Z" fill="white"/>
<path d="M239.551 239.551C243.357 240.693 243.357 240.693 247.671 243.611C250.209 250.97 250.209 250.97 251.731 257.821C253.071 257.821 254.411 257.821 255.791 257.821C255.121 259.831 254.452 261.841 253.761 263.912C246.96 256.172 243.266 249.025 239.551 239.551Z" fill="white"/>
<path d="M136.013 192.861C140.033 192.861 144.052 192.861 148.194 192.861C148.194 194.201 148.194 195.541 148.194 196.921C145.514 196.921 142.834 196.921 140.073 196.921C140.073 198.931 140.073 200.941 140.073 203.012C137.394 203.012 134.714 203.012 131.953 203.012C133.293 199.662 134.633 196.312 136.013 192.861Z" fill="white"/>
<path d="M148.197 170.527C148.867 173.207 149.537 175.887 150.227 178.648C148.887 178.648 147.548 178.648 146.167 178.648C146.167 181.327 146.167 184.007 146.167 186.768C144.827 186.768 143.487 186.768 142.107 186.768C142.777 188.778 143.447 190.788 144.137 192.858C142.127 192.858 140.118 192.858 138.047 192.858C140.534 184.631 143.526 177.747 148.197 170.527Z" fill="white"/>
<path d="M160.366 150.225C161.706 152.234 163.046 154.244 164.427 156.315C160.407 161.004 156.387 165.694 152.246 170.525C152.246 161.905 155.936 157.563 160.366 150.225Z" fill="white"/>
<path d="M205.036 205.039C207.045 205.039 209.055 205.039 211.126 205.039C207.827 216.712 207.827 216.712 200.975 221.28C200.305 219.27 199.636 217.26 198.945 215.189C199.615 213.85 200.285 212.51 200.975 211.129C202.315 211.129 203.655 211.129 205.036 211.129C205.036 209.12 205.036 207.11 205.036 205.039Z" fill="white"/>
<path d="M308.574 219.248C314.851 224.383 316.51 229.854 318.725 237.519C316.045 236.849 313.365 236.179 310.604 235.489C309.934 230.129 309.264 224.77 308.574 219.248Z" fill="white"/>
<path d="M136.005 310.606C130.295 313.778 130.295 313.778 123.825 316.696C121.815 316.026 119.805 315.356 117.734 314.666C123.935 308.465 127.98 308.115 136.005 310.606Z" fill="white"/>
<path d="M245.64 138.047C246.98 138.047 248.32 138.047 249.7 138.047C248.177 144.01 248.177 144.01 245.64 150.227C241.326 152.004 241.326 152.004 237.52 152.257C238.189 150.248 238.859 148.238 239.55 146.167C240.889 146.167 242.229 146.167 243.61 146.167C244.28 143.487 244.95 140.808 245.64 138.047Z" fill="white"/>
<path d="M225.603 197.92C113.528 206.474 110.581 166.513 151.103 146.72C126.824 156.674 117.805 168.846 117.967 178.295C120.098 196.884 154.896 226.75 225.603 220.505C297.189 214.182 323.374 173.574 324.126 162.916C325.338 145.752 307.463 140.07 288.385 133.695C355.723 161.91 290.75 191.342 225.603 197.92Z" fill="#E63C67"/>
</g>
<path d="M509.35 324.16C489.76 324.16 470.879 321.889 452.708 317.346C434.821 312.519 420.625 306.557 410.12 299.459L432.266 251.76C442.771 258.29 455.121 263.685 469.317 267.944C483.797 271.919 497.993 273.906 511.906 273.906C527.237 273.906 538.026 272.06 544.273 268.369C550.803 264.679 554.068 259.568 554.068 253.038C554.068 247.643 551.513 243.668 546.402 241.113C541.575 238.274 535.045 236.144 526.811 234.725C518.578 233.305 509.492 231.886 499.555 230.466C489.902 229.046 480.106 227.201 470.169 224.93C460.232 222.374 451.146 218.683 442.913 213.857C434.679 209.03 428.007 202.5 422.896 194.266C418.07 186.032 415.656 175.385 415.656 162.325C415.656 147.845 419.773 135.069 428.007 123.996C436.525 112.923 448.733 104.263 464.633 98.0169C480.532 91.4867 499.555 88.2216 521.701 88.2216C537.316 88.2216 553.216 89.9251 569.4 93.3322C585.583 96.7392 599.069 101.708 609.858 108.238L587.712 155.511C576.64 148.981 565.425 144.58 554.068 142.309C542.995 139.753 532.206 138.476 521.701 138.476C506.937 138.476 496.148 140.463 489.334 144.438C482.52 148.413 479.113 153.523 479.113 159.77C479.113 165.448 481.526 169.707 486.353 172.546C491.463 175.385 498.135 177.657 506.369 179.36C514.603 181.064 523.546 182.625 533.2 184.045C543.137 185.181 553.074 187.026 563.011 189.581C572.949 192.137 581.892 195.828 589.842 200.654C598.076 205.197 604.748 211.585 609.858 219.819C614.969 227.769 617.524 238.274 617.524 251.334C617.524 265.53 613.265 278.165 604.748 289.238C596.23 300.027 583.88 308.544 567.696 314.791C551.796 321.037 532.348 324.16 509.35 324.16ZM760.727 324.16C733.754 324.16 712.744 317.346 697.696 303.718C682.649 289.806 675.125 269.221 675.125 241.965V40.9488H741.562V241.113C741.562 250.766 744.117 258.29 749.228 263.685C754.339 268.795 761.295 271.351 770.096 271.351C780.601 271.351 789.545 268.511 796.927 262.833L814.814 309.68C808 314.507 799.766 318.198 790.113 320.753C780.743 323.024 770.948 324.16 760.727 324.16ZM639.776 142.734V91.6286H798.63V142.734H639.776ZM860.626 320.753V91.6286H924.082V156.363L915.139 137.624C921.953 121.44 932.884 109.232 947.932 100.998C962.98 92.4804 981.292 88.2216 1002.87 88.2216V149.549C1000.03 149.265 997.476 149.123 995.205 149.123C992.933 148.839 990.52 148.697 987.965 148.697C969.794 148.697 955.03 153.949 943.673 164.454C932.6 174.676 927.064 190.717 927.064 212.579V320.753H860.626ZM1176.46 320.753V276.035L1172.2 266.24V186.174C1172.2 171.978 1167.8 160.905 1159 152.956C1150.48 145.006 1137.28 141.031 1119.39 141.031C1107.18 141.031 1095.12 143.018 1083.19 146.993C1071.55 150.684 1061.61 155.795 1053.38 162.325L1029.53 115.904C1042.02 107.102 1057.07 100.288 1074.67 95.4616C1092.28 90.6349 1110.16 88.2216 1128.34 88.2216C1163.26 88.2216 1190.37 96.4553 1209.68 112.923C1228.99 129.39 1238.64 155.085 1238.64 190.007V320.753H1176.46ZM1106.62 324.16C1088.73 324.16 1073.4 321.179 1060.62 315.216C1047.84 308.97 1038.05 300.595 1031.23 290.089C1024.42 279.584 1021.01 267.802 1021.01 254.741C1021.01 241.113 1024.28 229.188 1030.81 218.967C1037.62 208.746 1048.27 200.796 1062.75 195.118C1077.23 189.156 1096.11 186.174 1119.39 186.174H1180.29V224.93H1126.63C1111.02 224.93 1100.23 227.485 1094.27 232.595C1088.59 237.706 1085.75 244.094 1085.75 251.76C1085.75 260.278 1089.01 267.092 1095.54 272.202C1102.36 277.029 1111.58 279.442 1123.23 279.442C1134.3 279.442 1144.24 276.887 1153.04 271.777C1161.84 266.382 1168.23 258.574 1172.2 248.353L1182.42 279.017C1177.6 293.78 1168.79 304.995 1156.02 312.661C1143.24 320.327 1126.77 324.16 1106.62 324.16Z" fill="white"/>
<defs>
<clipPath id="clip0_36_5733">
<rect width="361.354" height="320.752" fill="white"/>
</clipPath>
</defs>
</svg>
